<mxfile host="app.diagrams.net" modified="2022-04-19T12:55:57.423Z" agent="5.0 (Macintosh; Intel Mac OS X 10_15_7) AppleWebKit/605.1.15 (KHTML, like Gecko) Version/15.4 Safari/605.1.15" etag="MDK0dO6HOMyyLAW5kJSk" version="17.4.1" type="github">
  <diagram id="9UPThpxs4AfLK0f-XplL" name="Page-1">
    <mxGraphModel dx="930" dy="616" grid="1" gridSize="10" guides="1" tooltips="1" connect="1" arrows="1" fold="1" page="1" pageScale="1" pageWidth="827" pageHeight="1169" math="0" shadow="0">
      <root>
        <mxCell id="0" />
        <mxCell id="1" parent="0" />
        <mxCell id="cYs58w9Qr0jUcwbUE8m7-4" style="edgeStyle=orthogonalEdgeStyle;rounded=0;orthogonalLoop=1;jettySize=auto;html=1;entryX=0;entryY=0.5;entryDx=0;entryDy=0;" edge="1" parent="1" source="cYs58w9Qr0jUcwbUE8m7-1" target="cYs58w9Qr0jUcwbUE8m7-3">
          <mxGeometry relative="1" as="geometry" />
        </mxCell>
        <mxCell id="cYs58w9Qr0jUcwbUE8m7-1" value="coverage as fitness&lt;br&gt;functions" style="rounded=0;whiteSpace=wrap;html=1;" vertex="1" parent="1">
          <mxGeometry x="190" y="170" width="140" height="80" as="geometry" />
        </mxCell>
        <mxCell id="cYs58w9Qr0jUcwbUE8m7-2" value="" style="shape=image;verticalLabelPosition=bottom;labelBackgroundColor=default;verticalAlign=top;aspect=fixed;imageAspect=0;image=data:image/png,iVBORw0KGgoAAAANSUhEUgAAASsAAAGDCAYAAABz6zY3AAABYWlDQ1BrQ0dDb2xvclNwYWNlRGlzcGxheVAzAAAokWNgYFJJLCjIYWFgYMjNKykKcndSiIiMUmB/yMAOhLwMYgwKicnFBY4BAT5AJQwwGhV8u8bACKIv64LMOiU1tUm1XsDXYqbw1YuvRJsw1aMArpTU4mQg/QeIU5MLikoYGBhTgGzl8pICELsDyBYpAjoKyJ4DYqdD2BtA7CQI+whYTUiQM5B9A8hWSM5IBJrB+API1klCEk9HYkPtBQFul8zigpzESoUAYwKuJQOUpFaUgGjn/ILKosz0jBIFR2AopSp45iXr6SgYGRiaMzCAwhyi+nMgOCwZxc4gxJrvMzDY7v////9uhJjXfgaGjUCdXDsRYhoWDAyC3AwMJ3YWJBYlgoWYgZgpLY2B4dNyBgbeSAYG4QtAPdHFacZGYHlGHicGBtZ7//9/VmNgYJ/MwPB3wv//vxf9//93MVDzHQaGA3kAFSFl7jXH0fsAAABiZVhJZk1NACoAAAAIAAIBEgADAAAAAQABAACHaQAEAAAAAQAAACYAAAAAAAOShgAHAAAAEgAAAFCgAgAEAAAAAQAAASugAwAEAAAAAQAAAYMAAAAAQVNDSUkAAABTY3JlZW5zaG90uHRwqQAAAj1pVFh0WE1MOmNvbS5hZG9iZS54bXAAAAAAADx4OnhtcG1ldGEgeG1sbnM6eD0iYWRvYmU6bnM6bWV0YS8iIHg6eG1wdGs9IlhNUCBDb3JlIDYuMC4wIj4KICAgPHJkZjpSREYgeG1sbnM6cmRmPSJodHRwOi8vd3d3LnczLm9yZy8xOTk5LzAyLzIyLXJkZi1zeW50YXgtbnMjIj4KICAgICAgPHJkZjpEZXNjcmlwdGlvbiByZGY6YWJvdXQ9IiIKICAgICAgICAgICAgeG1sbnM6ZXhpZj0iaHR0cDovL25zLmFkb2JlLmNvbS9leGlmLzEuMC8iCiAgICAgICAgICAgIHhtbG5zOnRpZmY9Imh0dHA6Ly9ucy5hZG9iZS5jb20vdGlmZi8xLjAvIj4KICAgICAgICAgPGV4aWY6UGl4ZWxZRGltZW5zaW9uPjM4NzwvZXhpZjpQaXhlbFlEaW1lbnNpb24+CiAgICAgICAgIDxleGlmOlVzZXJDb21tZW50PlNjcmVlbnNob3Q8L2V4aWY6VXNlckNvbW1lbnQ+CiAgICAgICAgIDxleGlmOlBpeGVsWERpbWVuc2lvbj4yOTk8L2V4aWY6UGl4ZWxYRGltZW5zaW9uPgogICAgICAgICA8dGlmZjpPcmllbnRhdGlvbj4xPC90aWZmOk9yaWVudGF0aW9uPgogICAgICA8L3JkZjpEZXNjcmlwdGlvbj4KICAgPC9yZGY6UkRGPgo8L3g6eG1wbWV0YT4KTbOjEQAAQABJREFUeAHtnQ24FcV5x9/wURBBRew18nFLw4dgQhGtEq0hBvmwARLUIBaNT0FRryit5sELwTYS0SbGYmOLBkJCqmhzW0MwliDITULVhtCotBCwEhHQeAMYBVsgrTbb9z8nO2d3z9eeu7v37B7+8zz3npnd2d2Z/zs7OzM7+5sPOOqEjgpQASqQcgU6pTx9TB4VoAJUwCjAyooFgQpQgUwo0KVcKv/7v/9b3nzzTTl69Gi5aNxHBagAFUhcgbKV1euvvy4f/OAHpVu3btKpU+0aYagwf/d3fzdxMXgBKkAF0qtA2crqf/7nf6R79+7ygQ98oOY56Nq1a83TwARQASpQOwUqNpfSUFHVTh5emQpQgbQoULGySktCmQ4qQAWObwVYWR3f9mfuqUBmFGBllRlTMaFU4PhWgJXV8W3/qnJ/wgknVBWfkalAnAqwsopTTZ6LClCBxBTo0Mrq2LFj8sorr8jevXsTy1BSJ0baly9fLlOmTJELL7xQNm7cWHCpr3zlK3LzzTcXbI+64d133zXXbG1tDXWqSZMmyT/+4z+GistIVCArCnRIZYUb/Sc/+Yl85zvfkc2bN8u2bduyoo9N5z//8z/L5z73ORk5cqTMnDlTPvShD9l9rmf37t2yY8cON+j7vf/++6Vv376+bWED7733nrz00kty6NChUIf89Kc/lba2tlBxg5GQhx49ekjYijF4PMNUICkFyk4KjeuiuHHQovr93//9dt9EcaWlvedZt26dnHvuubJ48eKSp3j44YdL7gPc4v/+7/9K7o9zx/79+9t9OqQTf7/5zW/afQ4eSAWSUKBDWlYNDQ3y6U9/Wi666CLz1I4rIy+++KLpHvXp00cmTJggf/mXfylXXXWVPf0TTzxhrolPdc444wy59NJLq27VoVt3/vnnC1pWP/vZz4wf4WeeecZe54EHHpCPfexj5m/27Nl2OzzLli0zxyxdulTQncOx+PvTP/1TX7wwgV27dskll1wip59+uuluvvHGG77D0EV10/EP//APvn0IoPt96623yplnnimnnnqqSce//uu/mng4N9J1+eWXm/DcuXNtWvG5Ex0VqLUCHdKy6tmzZyL5vPLKK82nQF/84hflhz/8oWDMaODAgfZaW7dulT/6oz+SO+64w3Shvva1r8m4cePk5z//ufTq1cvGK+e5+uqrZeLEifKlL33JtDgWLFhgop911ln2sI9//OPSr18/UzEFu4GoPPB95erVq+Wpp56ShQsXmuNOPvlke3xYD9Jw/fXXm0r3vvvuk969e8s999xjD8c+fCKF32LdQOjwb//2b6Z1eNppp8lzzz0nBw4cMMcjjUgbKqbbb79dpk+fLqNGjTL7TjnlFHsNeqhArRTokMoqicyhUvjFL34h3/ve92T8+PEyZ84cM47kZQkGu2yoUCZPnmzGf8aMGRMqWajs4P7+7//edOPQQgy6c845R/CH1lawskKlhj90g59++mnTwgweHzaMa2PsCw6tymeffdZ3qJu2pqYm33Y3gMp79OjRMmPGDLMJrVHXofLG8a+++qrZhHxDVzoqkBYFOqQbmERm8TYO3y3i5nMdujFe95//+Z9yxRVXSGNjo5x44ommosJ+dMey6LwV7Ic//GFbsYTNC1qia9asMa3N+fPnm25t2GMZjwrUWoHMVlbvv/++qay8H1rD74bRwrruuutMiwZdJbyNdMdxOmqgO27jertjQPZ4W5FhrnX33Xeb7igqukceeUTOO+88+fa3vx3mUMahAjVXILOVFcae8MYKYzCue+GFF+wNjO4Mwhgo/uxnPysf+chHTMXlxvX+Tps2zYw5YQA+KdelSxfBFI5f//rXSV0i1Hn/+I//2MwXwxQFvJ19/PHHfcchnXCHDx/2bWeACtRagQ4bs3rttdfMmA8GgNEiwCB3586dzQ3THhFGjBhh3ophMLi5udkMsAMW+Hu/93vmdJgHhe7f97//fUH36cc//rH83d/9XdFLYf7S22+/bf6KRiizES28ffv2mRggq/7v//6voCKAw7wq8MDgUDFgvtRf/dVfmTduaCW5aTURIv5D1/att94yZ0ElDj/SgRaY+9Lhz//8z+Uzn/mMDB8+3LwVxRQHVPpeh7emSPOKFSvMiwG8aR08eLCQJ+ZVif5aKNBhLSt0w/CaHDf0kSNHjH/Lli3tzjO6e6tWrTIVIN5+YVrBpz71KXtT4SbFW0IMeJ999tly22232ekCblfRvXgw7G73/iJOsXi//OUvBd0q/GE8aPv27Tb8ox/9yJ4CA/tIJ95IfvSjH/VNsbCRKniKXd89ZOXKlfa6aL1hOgXShK6e6zAhF4Pm/fv3N5XWxRdfbKZ7uPvx+zu/8zuCaRaogDEAjxcHwSkS3vj0U4GOUuAD2sopuRQX3h4NGzaso9JS8jp4nV5u9jdaLHjyX3DBBeZ1PlpTrnNbcWhdsHUg8qtf/UrQokJrCRVTNQ4fMqMrS0cFaqFAh3UDk8gcBs7RSsCNhxnm//7v/y5/+7d/67sUWiNDhgzxbUtTAJNDy7Uw0SoMjitFST+6dfijowJZUyDTlRVaVF/4whfM+Awqrb/4i7+wXb2sGAKzzvG9YSmHyZp0VIAKiNRFN5CG7BgF2A3sGJ15leIKdNgAe/HLc2uWFOB4VZasVX9pZWVVfzZljqhAXSrAyqouzcpMUYH6U4CVVf3ZlDmiAnWpACurujQrM0UF6k+BspVVt27d6i/HzBEVoAKZVKDs1AV8GoPZ40ePHs1k5phoKkAF6keBspVV/WSTOaECVCDrCpTtBmY9c0w/FaAC9aMAK6v6sSVzQgXqWgFWVnVtXmaOCtSPAqys6seWzAkVqGsFWFnVtXmZOSpQPwqwsqofWzInVKCuFYjMs3rwwQflv/7rv4xIN954o2DxzKw6LD6BRSZuuummolmop7wWzSA3UoESCmBtASwiDAeg5ec///miMf/6r/9aJk2alAhhOHJlhVWCsbowAHKA4WXZYXHQCy+8sGQWyuUV+GSsCg1sMFjwwdn/YND/4Ac/MOfGAhbu4qnYAN3+5V/+xSy++s477whWeP7EJz5RFMOMxVJBRMVqySCkJuHw8MGCrVjUYuzYsb5LYBmzJ554wrDmsWjsJz/5SbMwhxsJDPrnn3/eMNxBaAV7vtgDrJJe7vmi/pbTC/z873znO4JfLECCRV5du2XJJtCoXPnCqttYD+Dll182KGsAH8HnD7pyNoHdt23bJrt27TIL7JaqrLDKN8ryk08+GTx99LAmMJLT1VAcTXikc6ThYOW2O/rEcLRwl0xOqbwqdtjRwg6WvfnTBRZ859AFGMy59eZ3lPxp4uhTysbRG9xswz5decbE1QeAo0a3cbSCcnRlGkcXwjBxdUEIuy8uj1aUjtJWHV2W3lxDmfa+U+uqOc4ll1xi9g0aNMhRhrtz6qmnOtoatfGQ/p49ezq69JmjC8s6uoKRs2DBArsfnkp6+SK3M1BJL71xHcU7Gz3PPPNMkyd9SDjK7DJXzIpNkNhK5UtpusYO+nBz9AFj8nruuec6+lCy6oa1Ca6Fcl7K6QPblF/oH7crfdWQVyp1A4c8PDXRPvaxjznaSiibnlJ5RSWnS1o51157rTGkt7LSpcccXZrd0ZaUo58vOQj/yZ/8iaPUTUeXADPX0zX6HF2dx15bV5YxN7quPmO3TZ8+3dFFL5xFixaZayRRWWmLyaTr1ltvdXShECdYWX3ve98z17733ntNun7xi1+YyldbJDaduqy9o10GE9ZVdhztEphjDh48aOOU08tGiuippNc111xjKipUWnC62KtJp66YZMJZsUmY8qVLsjm6NJvJF/4tW7bM5PWhhx6y28LapFJlhRP+wR/8gSnj9uQxeRIbYNcCL/r0Nc1qrCxzww03mGW4vG1BrBCMJc0fe+wx060BNhfLP3ndRRddJCqu3HLLLWaFG32SC8aO4FpaWgRLxmtlYFa1QZflP/7jP+zhWGrqrrvusmF4sLAEFmHA0vKuQ5Mfy1RpheVuquoX41zoNnmXvXJPgPUS0a1C1xBL2GNFGSy6Cuom0gJ30kknyVlnneUeIgMGDDCLXGA9Q9eh2Y0meKnxNDdelF+sDoT0Qt+GhoaCU6H7CaeVrfnFikNYGHbt2rWC9SDh0D11VxFCl8rtVnvzUk4vc5IY/lXSC3nBMmPaqjJXu+KKK8xwxurVq004KzYJU76wZqV3kRC3a48hB9fFaRPcR+gKxu0ij1mVShAKw5w5c8xAG/wY74E4//RP/2QPwdp0KOjr16+Xyy67zNyIwb4uxkDuuOMOc0NjAB8LcGKMAe6ll14SVGbazRDcDFrrmwoHi52isKFfjtVusN8di0DFh3X13EKK86ASQIXV3lVwcINWcvrkKoiiLRPfNhQ8pB2aYBk0bcHY/fq0sv6kPOWWO/Ne05sX+LHQK5b3wqKycLAz8oIHAGwSHF8Lo5f3eu3xh9HLmw9cA+F6sImrVzAveJBjceGHH35YsPL25Zdf7kY1NrKBiB7cR7g2Ft7FfRiXS6yy8tasGIRF4cUioEEHogOeZqis4FAhBR0G91ChuKsbu/tRAXodVrhBy0y7IoJW1ezZs0WbumawDy047YqYFZqxhJfX7dy50wSTGLDGUw0tv6eeespU3igkWJwVDgOfXofK3W1tYRB0/vz53t0197sVgHaZzCrYbW1tNr3Q1q2sYOdZs2aZ9KKF5rZWap4BTwKQF+QD5Qo3F9KIB17WbBK2fIGg4l1FCWUwqTVB0aOCw301evRoj+rRvJ2iHV76aBQENLNxo2J15K9//eui4wAFB6BbhFWCyzkscR6sqBAfbzdwU59++ulmKXq3C+leB909HUgUrFYMh/X3tPssOrZkwu4/HRA2XqwUHbdD/tDdffbZZ80ah1gyHm/L4NAt9LpHH33UtKgWL15sWptz58717q65H2/28CYTlSgq9oHavUflC9ejRw+bPh0vMkvXQ3d0P/B20+0m2kg19ixcuNCUTdyw+EPXFi1Lbz6QxLTbJGz5QllDT2bDhg0ybdo0mTlzpmzcuDERK7hIKfe+iusiibSsMB6ECgHjNFjCHU+u+++/31Ya3sQPHTpUKmUKlV7QuZUOnoZf/vKXTaWE19T6xswsKe/GR+vq5ptvNs3Sb33rW+ZVOio3r3PHi/CUdcdYvPuj+v/sz/5M/vAP/9BMbUCzGJWqvjUzlZf33Lix8YcnIJa9x42yZMkSOwbkjVsLPx46ra2tZqwQT0287keXD1M+0Kp1HW54PPHxp28WZerUqebGwPybtDjojyEGTF1AHiZOnCj68sI8zLxpTLtNkNYw5QtdXIyF4g/TZjDtBK0rNATidriP8BDDvR2nS6SyQgHAGBDGh2BsuJ/+9KdF0x0cNygWCTdJ0KHvjUmc6H9jVWM4dLWCDk/Mz33uc+YP40BotQQdDIgWIEROyqGAuHOrli9fbi7z0Y9+tOTl0PXFwDxaicXmKZU6EA8FzIdBhXj11VeXitbu7SiE3vOiVYyxQehXzGE8C07fkBbbXXIbxhXdIYE777yz3eOJJS+gO3DDuq1XjLlhHhxaXKVce22CIZFvfOMbgpdD+ha31Okjba+mfOkUFPNAB1gzCYdGA1re7osW7zWi2DWRykrn4hijoxuArgN+UVHonBtvuiP50S9GlwoV1MU6PoWu1Ve/+tWCc6Ilg/EqpEGnHpi3VwWRdAPeBmHcolhlViy+dxsqB1SeyCOcztkyFQy6PyigaHpjsBFPGgw633777WYypduie+SRR0yXFk93vAhAfKRlxowZtqJ6++23ZdOmTWZcBdfAS4vvfve75ibWOU3YZBzeSuJ4TOj0Viru/kq/Tz/9tHlTqa+6TYHGNfCWFm/94PCmEAPkSOc3v/lN02KCtnB4OYCXIVdddZWxDR4maBmisvWmpZJeOBe6jdAFDq3jal9+VNILY1NoWeDNGCoqdG1REaOVCBenTXDz4nwof+2prCrZpFL5wpt4tOwxJIJxRvQw8CB0h02Q3zA2QbxKDpURyr/7oAnGj2TXqFMgSs09uv76681cIU2soy0X57rrrjMT07zX00Jo5mR4twX9mKCoYz7BzSasUx4crbDMnBEd0zKTD3E9vdF98fUmN3Gam5t9270B7bqaeTf6ZtK72ecvlVdthpvz49revx//+MfmeMxr0Rak2YdJkto9djCPx3Xa3XMwYdR7rI4NOXv37nWjODoz2LffjXvbbbfZOPDoOJ2Jd9999/m2hw0gj+653V/Yz3VawO1+TP7Ulpy7y9E3QA4mi7rH4VfHgRwdcLdx4KmkF+Jgci6OxyTYV199FZuqcpX0QloxadVNK9K9ZcsWe404baIvdMx1dGqLPX81nko2qVS+9KHnaEVs86otHkdblI62em0ywtgEkSvNs1qxYoXR1Tuvy15EPVHsGsukUBQoCKDjGN50mUmQmJCWpMOsalQ07kTEYteCMVEoEa+cw2TNchNDUWhK5bXcebFPP8Nx9OllNCkWFwUHlZO+XjZxi8WptA3XQPq0JeNoS65S9Hbv37Nnj4PJlNotKnoOTABFXjG5tVScogd6NmpX2dgMkzeTctoKMGVWu0NFLxGHTXBi7SqbvOi0nKLXiWNjpfKlL49MRYF71J2lX811UZ5wj6N84V4q5fQtqzNv3rxSu50odi191ZKX8+/QcR5HB4PNX7kKw39Ux4RQOX3ta19zdEDdQYugktPBegf5KeXSnFekGS1KFKT2tqpK5bsW2/HgQGugnD1qka5qr6ndHkdfODjtbVVVe72k4qNR4N7nwUaJ95rYh4qxlIti17peMOJv/uZvRG9c01/X5mnRWdl6c9eN0xaPeYuIj6AxzpRlp11owUCw+1Iiq3nBGA2mCODt44c+9KGsZiO2dEexa11XVrEpzBNRASpQcwUK5wTUPElMABWgAlSgUIFEpi4UXiYbWwjfy4admMqOVyAN8D12Az12x1wUzGB3qQ6eXcaLzzFc0CDmy+jbQRtFBxQJ31M1MCuc8D1bLGLzYF5UKSAiLpI0fA+UEHyioy88zLe3KO/FHL7xxVhjEEhQLG7V20qN2h9v2wnfcxz97ITwPcL3zBtlL5PNWxdUmmeVavieNyNZ9hO+5ziE74mjs9pNMcak3SwAETE1Qj91Kgt3JHyvQhuO8L2cQEDjEL4n9jMhqBIn6K1UMSR8Lw93xAfl7je60IvwvUCpIXzPL0ixD7aDcDRUbITv+XVrb8hlb5U7PmgThOvBJm6eg3khfM9VJvBL+F5OkLBwNMQmfC9QiBIMEr5H+J4tXoTv5aQIC0dD7LSD3gjfW2+RMrag19gTtnwRvlfCUPpNHuF7Hm3CwNEQPe2gN/2IlfC9lAERUW7ClC90ccFtwx8+YSJ8D8qpI3wvp4P3fzVwNBzXXtAb4Xte1cv7Cd8jfE8I3yN8D2BEwvdylSXhe/mHRk3he6XmVhG+Jw7he4Tv4f4gfC9fS9QUvpdPRqEPKxATvpfTpRIcLQ7QG+F7hWWw3BbC98qp499XF/A9f5bSFSJ8L132qCY1USBt1Vwn6biE7/kVjmLXuv6QmfC9/FhB1nxRIG1pyivhe35rRLFrXVdWfpkYogJUIMsKEL6XZesx7VTgOFKA8D2PsQnf84hBLxXwKED4nkeMNHgJ38tZoRzoDZNVFSVjIHuYVKlLl0ljY6M1H+F7g60WcXrK2QTXIXzPP5Bf1yHC9wjf0xW07Zp6WukaCN0HP/hBR1emMYvUKiXW0Q/07X2gZBHnM5/5jF1LT+mxdl9cnkpARFwHQDz9nMYslIv0at3lfOUrX7FJ+MIXvmAWGNYl3R19wJj9ujqzoxWgjfP44487I0aMMPtwPOF7Vpr0eQjfI3wPNynhe9eaCqu9lRXubCx0iikKcbvEBtgJ39Oir47wvQuNDrqArPnFP8L3rBQVPRdccIEpQ1gXoKGhoSB+mPJF+F6BbP4NhO/59QiC3rA3CEcjfM+vWZQQ4XuF5YvwvRIlivC9nDCE7zWILmtfopTUbjPhe4Tv2dJH+F5OirBwNMQmfM8Wn8Q9CxcuFF1oQYYNG2b+dIxFsNRajx49fNdOu03Cli/C93xmzQcI38trAV8YOBriEb4HFTrG6Rs+M/0C7DV94yYTJ06URYsWiQ4K+xKQdpsgsWHKF+F7PrPmA4Tv5bVwfYTvveFKEepXiQhy4403mrh33nmnDBkyJNRx1UQifI/wPcL3vk/4HuF7H7H1JuF7VgohfE/nx3Tv3t1ZsGCBmSOiA7q+KR6bNm0y25ubm33bvQHgZJQx7qxfv9672efX5eIdXY/Otw0BbYab86tJfL+E7xG+h/JB+B5UyDnC97Si0W+XXD0KfpctW2YqEVRI5RwmsunnIyWjoLJChda1a1dn586dJeMV20H4XjFVSm9bvny5sdk111xTOlLEPYTvhReQ8L3wWrUrJuF77ZItFQdFgbSlIgO/TQThe35rRLFrXfOsCN/LjxVkzRcF0pamvBK+57dGFLvWdWXll4khKkAFsqxAYt8GZlkUpp0KUIH0KUD4nscmhO95xKCXCngUIHzPI0YavITv5axQDvRG+F7XgqKKeVT4cH/UqFGizKiC/XFsKGcTnJ/wPf9Afl2HCN8jfI/wPcL3MlHJEb5H+J42UAjfu5bwPbnhhhtEV2j2tYjvvvtuufLKK+Wxxx4zTegTTjhBJkyY4Itz0UUXiU7qlFtuucV8FX/qqacKQGRwLS0tcv7555uv53v37i1jx44VMHtcd/HFF8tdd93lBs3vunXr5OyzzxZ8bO269957TzZv3ixaYbmbqvotB5MLA0c76aST5KyzzrLXHDBggPkWzgus05nzsmvXLrnppptsvLg9lUBv6OrAgVAAB0rBpZdeKmvXrjWfUWAbukI6aRZe6datm1x4IeF7Rox2/qtkkzDli/C9CuITvucXiPC9/FgOKrSkHeF7hO+FLmOE7+WkInyP8L3QN007IoYtX+jVjBw50l5BWfOG42U3xOgZNGiQOZt+kiajR4+O7cyJzbMifC9no7BwNMROO+ht8uTJMmbMGJk/f7556zVw4EDp0iU3+8ULrZs+fbrs3r1bVq5caRhdOnBtu4mxldyIJyJ8b6Zs3LgxoorFDz969KjZ0bNnz+IR2rk1V9LaeXCpwzAedO2118qnPvUp+eIXv2jGX+6//35TeIPHDB06VCpl6pxzzgkeZiBpuAbGdb785S+LLi0keIWsSyMJXq+7bvbs2XLzzTcb3vm3vvUtwQ13+umnu7vNrztehDEhd4zFFyFiIAwcDZdIO+hNP+KW1tZWM1aIp6Yu3WTAdU1NTdK/f3+rEiouPPHxh7HEqVOnmhtj0qRJNk6tPYTv9RO0rsaNGxe7KXAf4SGGeztOl0hlRfheoYkI33ujUJQyWwjfKyNOkV3VlK/f/OY35oH+5puE7xG+R/ieEL5H+F6ROpXwPRWF8L3fzmbTaRmGA3Xfffe1a34bmF3Q0/unUynsuXRqid2n3XdHu/d2ny4t5ujgqt2Pc+j0BmfNmjU2DjyVYIWIEwXShuOfe+45Xzrc/Nx2223Y7SCtuoiCjYN0b9myxezDPx0/NCscu8fhV8frnL1799o4la7hRiR8z1Uiml0x9pOY0zcQjg60JnZ+nFibtA64VYTvOQ4Af4ADnnbaaQ5gaUm5PXv2OC+//LKjY4NFL3Hw4EFn27Ztzr59+0rGKXqgZyPhex4xQngrwR2PHDliHgCARh47dizEGf1RCN/z6xF7iPC92CXtsBNGgbR1WCJDXIjwPb9IUexa1zwrwve085JRFwXSlqYsE77nt0YUu9Z1ZeWXiSEqQAWyrEBik0KzLArTTgWoQPoUSGSeVfqyGS5FhO+F04mxjj8FCN9Lmc0J38sZpBzojfA9wvdefPFF8wVJsdv3sssuE0w6ffLJJ4vtjrbNP1Z//IYI3yN8j/A9wvcyUQMSvkf4nj72Cd8jfG8g4Xv6UbfOmBZQGD772c+KTswTgADhCN8zMsT6rxKsELw1fCB/5plnmuteccUVcvLJJ8vq1atNOCs2IXwvhmJD+J5fRML3BltBCN+zUlT0gMYaxoUpX6Do/vznP5eHH37YUBEuv/xye+o4bTJkyBBDOdFZ7+ZBbC8S0ZPY20DC93KWCQtHQ+w5c+bY1taUKVMMNyqifWM93KVvglXW3NwsbW1tNr36iY00Njaa6+m3gDJr1izjb2ggfC9WIwROFrZ8Eb4XEM4bJHwvpwbhe32E8D3vnRGvP2z5whCEfqspGzZskGnTpsnMmYTvGUsQvucvkITvEb7nLxHxhsKUL3QTsRAJ/sC+6teP8D1jBcL3CgtjNXA0HI35TJjvdPjwYVGKQuEJS2wBkVWJB2aVoKuvvrpErPZvBgHSe97x48fLhz/8YbPCULGzvv/++2bzG28QvoeVmR544IFiMkXeVk35InzPI/cll1wiYFyDwQ2MMH63bt0qnTt39sSK5gWUHoC3p556SrDk1vPPPy9f/epXC06KtzpY7gtpUFaTWTqqIJJuwNsgvAlavHhxsd1lt6FywMAl8ginc7ZMBYPuDwoomt4YbATmFUt+3X777fLJT37SLr/1yCOPiCJXZOLEiWb5KsRHWmbMmGErqrfffls2bdpkMM64Bl5gfPe73zXI6I98JA96e+aZZ8z1TjnlFF+lgmPCuKefftq8qXzrrbdMhYlrYIk0LLkFh2XQMBiLZba++c1vGlwxtIV7/fXX5Y477pCrrrqK8D2PTYDbho1R/tpTWVWySaXyhWXwMOEZ6G+MMwLvjQehd9m7SmXYGDjEPxBeUf5vvPHGorHxYTe0gANyHIPxoV1Sk6Cuv/56CzcDvO26665ztLLyXU4T6+igrW9bMKAMb0fXFwxuNmFdb9DRCssA1Lp37+4sWLDA+PVG98XXm9xs10Fh33ZvADgZsKDWr1/v3ezzA0ynr8R92xCoBJPTdQ8dbYabNEADZdM72mKy54kT9Eb4Xk7WSmA8wvfmOtrqtWWwUhl2Iy5dutSUYzcc/F2xYoW57/VhF9xlwlGgioTveSQFa0dbPJ4tfi8qK1RouoinA4hZNa4SHA0FBxRKfb1sIHrVnNuNS/ieq0S4X20FGDsqi7zoAXHYBCfWrrK5wfUTlKLXiWNjpfJF+F4cKid4DsL3EhQ34VNHgbQlnLSqTk/4nl+uKHata54V4XuhRwNSFzEKpC1NmSF8z2+NKHat68rKLxNDVIAKZFkBwveybD2mnQocRwok9rlNFjUkfC+LVmOaO0IBwvc6QuUqrkH4Xk4swvdE3nvvPcH3rS+99JK888475pOhT3ziE6JvggtKFOZRYd4b5p8NHjy4YH8cG8rZBOf/yU9+Ij/4wQ/MpXR9QzNL3b3ugQMH5Ec/+pGZy4fPc/DdKSbyBp0OhcsPf/hD0TeLotNrzFw6Nw4oIfhEB0vDE77nf2nQ4SHC9wjfI3yP8L0Or3jac0HC9wjf01YE4XuE7xG+h2Y14Xu5TsULL7wg+CzovPPOc3sZsf8SvpeHOwIj06dPH6vx2LFjjR/dW9fFaRN98JsutHvuuH4TG2AnfM9vojBwNFAf8X3d2rVrzXeG9957rz2Jy5KyGxLwtAf0hnzhY+X9+/dbnhVuAuQF30Hq5xkFYzlxgt5KyRBGr6BNENbPcHynzKJN3AwE80L4nqtM4JfwvZwgYeFoiE34XqAQJRhEZQbmGgaM8TEtPhw/dOiQYDDa69Juk7Dli/A9r1UDfsL3coKEhaMhtn7QbFpUID/oB9Uyd+7cgKq1DYKggTdN8+fPN2+9Bg4caPC4SFWPHj1s4qZPny67d+82pAt0Pwjfs9LE7glbvgjfKyE94Xt+YcLA0XAEbmz8jRw5Unbs2GEqryVLlhR9Xe6/QseE9CNuaW1tlZaWFtEPuWXEiBHmtX5TU5P079/fJgIVF574+FNqhkydSvieFScBT5jyhS4u4XtFxCd8r1CUauBoOJrwvV9bJtKdd95ZHfeoUP6iW0DLdFuvGHPDPCVw2Eq59toEQyLf+MY3DNusPTyrUunxbq+mfBG+51GO8D3C9wBGxBcBaBmCdOqli4YBvUWCtGlZrAQrxNjUqlWrBG/GUFGhawsKKlqJcHECEQnfM5Kaf5Hs2p45SWGOIXxPHP3C3EhF+N4aX5EJA3qLAmnDxQjfy8MdlTjraEVsmFpaYxgem7YoCd/zlkp9A+HoQKt3U+x+bdI64Fbpt0slz43KAkZCvHKO8L1y6uT37dmzx1EMs6PdovxGj0+X5XK09eToaiol43iiF/UuX77c2Oyaa64puj+OjYTvhVdRsdymkgN8EvdSKQfy77x580rtdqLYtfRVS14uOzsI38uOrYIpjQJpC56rlmHC9/zqR7FrXfOsCN8zwwSZ/BcF0pamDBO+57dGFLvWdWXll4khKkAFsqwA4XtZth7TTgWOIwUS+zYwixoSvpdFqzHNHaEA4XsdoXIV1yB8LydWOdAbJkY+8cQTsn37drMEORZrbWxstCpjOxac1TeBZiInPtEptqK0DruWBL3Zk8XgKQfG++UvfymYwIxfzMb/9Kc/bYFzhO8Rvud/NZCiEOF7hO8Rvkf4XoqqpNJJIXyP8D1tyBG+R/ge4XuE7x2ynbo4QW/2pAEP4XuE7wWKROkg4Xt+bYKgN+wNwtGyCHpDvgjf89s6zlB7gIju9YPli/A9V5nAL+F7OUHCwtEQO+2gN5e+CVZZc3OztLW1ybp160xG9RMbO9C+Zs0amTVrltne0NBgwHYmkKJ/hO+tkmHDhiVikUGDBpnzAiM0evTo2K6R2DwrwvdyNgoLR0NswvdiK9cVTwQUTK9evcwNi5tWPwMRtGK8EMEs2CRs+SJ8r0SRIHzPL0wYOBqOIHzPr1uSoeHDh5vpF5i6AGb8xIkTZdGiRfhW1nfZtNsEiQ1Tvgjf85k1HyB8L6+F66sGjoZj2gt6u//++wW8qAkTJvgYUm46ov6C+eRlU40fP94smIlWSjGH8Sy4N954o9juktuUiED4Xkl1CndUU74I3/PoR/ge4XuE733E3hGE71kphPA9nR/TvXt3Z8GCBYa1oyuV+CZUbdq0yWzXQWHfdm8AOBmwenShBu9mn/+MM85w9JW4bxsClWByhO8Rvqe3q6PrJBaUnTAbUO5wvPdPeer20Erli/A9K1VpD+F7eW1+9atfGSAdNCnmtLvk7N2719HXyw7itsfhOFS4+nmLA1haUo7wveqU1a6yqWiefPLJ6g6sInal8nXkyBEH9FV9Q+ccO3asijPnohK+V7Vk1R1A+F51eqUpdhRIW5ryQfie3xpR7FrXPCvC9/JjBVnzRYG0pSmvhO/5rRHFrnVdWfllYogKUIEsK5DYpNAsi8K0UwEqkD4FCN/z2ITwPY8Y9FIBjwKE73nESIOX8L2cFQjfEyF8j/A9/6uBFIUI3yN8j/A9wvdSVCWVTgrhe4TvabuS8D3C9wjfI3yP8L32DHVccMEFAs7Zgw8+KMDtBB32odternwBU4QPsl03duxY48UH3K6LE4ioD37xIqLca0T9TWyAnfA9v2kI3xtsBRk1apT1J+Vx2Vvlzh+0CcJBYF0WgYhunoN5IXzPVSbw661ZsQIKjA4oW9AdPXrUwNkuu+wys+vGG28MRjEEgl27dol+/+fb96UvfckX7t+/v6ENvPjii3LxxRfL7Nmz5aGHHhL9zEGuvPJKASBOx6bknnvu8R0HSBjc4MH5G8oXIUKA8D3C9yIUn4qHhi1f+pmXjBw50p5v1SrC96wYhO/lpAgLR0Nswvds8UncQ/jeTNm4cWMiOqMBAtezZ89Yz59IN5DwPb+NwsDRcETaQW/6kbS0trZKS0uLoDWKtfYw7tHU1CRo1boOtE088fHXu3dvmTp1qrkxJk2a5Eap+S/he/0Eratx48bFbgv0gsA9Gzp0aKznTqSyInyv0EbVwNFwNOF7hO8VlqLSW6opX4TveXQkfI/wPcL3CN/zVAnWS/ge4Xt2AtnZZ59t2En33Xef3VaNpxLoTXHJFgKnYxKOYpTt6fXtk6Mrm9j9WkIdXYTB0RcrNg48lWCFiAP2Eo4Hn+vVV1/Fpqrcc88950sHzoW/2267zZwHadVFFGwcpHvLli32Gjp+6Jxyyil2P44dM2aMYY65kSpdw42nL3TMeQjfi2ZXAPITc4Tv5aWtBEcjfC+vFXzLly83N/g111zj3xFjSDnvBkb35ptvFj1rHDbBiQnfy8sbxa6JVlb5JNbGR/hebXSP46pRIG1xXD+ucxC+51cyil3rmmdF+J52XjLqokDa0pRlwvf81ohi17qurPwyMUQFqECWFSB8L8vWY9qpwHGkQCLzrLKqH+F7WbUc0520AoTvJa1wlecnfC8nGOF7hO+B4tCtWzd7B+nyXTJz5kzB7HR8e6vD5naf14NvfDHpFN/jxu78Y/XHb4jwPcL3CN8jfC8TNSDhe4TvaUuA8D3C9wjfKwdHO+mkk+Sss86yrWZdGlyGDBkihw7lgXW6bL1pgt900002XtyeSqA3MMrgdK6M+dXZ6XLppZfK2rVrBa/o4cCq6tq1q/GjG3HhhRcavzcvcYLezMmL/KukF/JyzjnnyJlnnmmOvuKKK+Tkk082uCJsyIpNCN8rYvxqNxG+51csCHrD3iAcLYugN+RLZ3rL/v37pbGx0WQaJAbkZfPmzbJ06VJTgXlZYYTv+ctGuRAeCGFcmPJF+F4JJQnfywkTFo6G2HPmzJF169aZA6dMmSLz58/PnSQl/136Jlhlzc3N0tbWZtMLsKFbWQGyOGvWLJNqoHhXr16dkhzkk4G8IB8YMEYrFmlE6+/AgQP5SOpLu03Cli/C93xm9QcI38vpQfheH9GBa9tN9JeS2oUI3yN8z5Q+wvf8NyHhe4Tv+UtEvKEw5QvdRIyF4g/sq379CN8zViB8r7AwVgNHw9GE7xG+V1iKSm+ppnwRvufRkfA9wvcI3yN8z1MlWC/hezo/Rle+cRYsWGAYSDpY6pvbtWnTJrNdB4V9270B4GQAelu/fr13s88PMJ2+EvdtQ6ASTG7ZsmWONsNNGjp37uzoNAbn8OHD9jxxgt4I38vJWgmMR/jeXAe8LtdVKsNuPH27a8qxGw7+rlixwkAN33rrreAuE44CVUyUZ0X4Xt5ehO/ltQjjiwJpC3N+xCF8L6xSjvPuu+86On/OPNC1mVTyQH3L6sybN6/k/ih2LX3VkpfLzg7C97Jjq2BKo0DagueqZZjwPb/6Uexa1zwrwvfsUEHmPFEgbWnKLOF7fmtEsWtdV1Z+mRiiAlQgywoQvpdl6zHtVOA4UoDwPY+xCd/ziEEvFfAoQPieR4w0eAnfy1mB8D3C9wjf878YSFWI8D3C9wjfI3wvVZVSqcQQvkf4nrYrCd8jfI/wPcL38iBBwvfCD3pUAiISvhdey5IxCd/zSxMGjkb4nl+zKCGXvVXuHEGbIFwPQEQ3z8G8EL7nKhP4JXwvJ0hYOBpipx305lYAhO8FCnsNg2HLF+F7ZYxE+F5OHML3CN8rc5tE3hW2fJ144omyb98+2bBhg0ybNs0sq7Vx48bI1y92gqNHj5rNPXv2LLa73dsSmWdF+J7fHmHgaDiiT58+5m/kyJGyY8cOURqDLFmyxC7A4D9rx4eUSiGtra3S0tIiO3fulBEjRgh4601NTdK/f3+boB49egie+Pjr3bu3TJ1K+J4VJwFPmPKFLi7he0XEJ3yvUJRq4Gg4mvA9wvcKS1HpLdWUL8L3PDoSvkf4HuF7hO95qgTrJXyP8D07fYzwvZwUhO/l4Y4zZsxwunTpYqB5WmsYLtXcuYTv2ZsGHsL38nIQvpfXIowvCqQtzPkRh/C9sEoRvhdeqXbGJHyvncKl4LAokLYUJN8mgfA9K4XxRLFrXfOsCN+zQwWZ80SBtKUps4Tv+a0Rxa51XVn5ZWKIClCBLCtA+F6Wrce0U4HjSIFEJoVmVT/C97JqOaY7aQUI30ta4SrPT/heTjDC9wjfI3zP/2IgVSHC9wjfI3yP8L1UVUqlEkP4HuF72q4kfI/wPcL3CN8jfK/KUQkTnfC9vGqJDbATvpcXGb4g6A3bgnA0wvegSjzOZW+VO1vQJgjXg03cPAfzQvieq0zgl/C9nCBh4WiITfheoBAlGERlBubarl27ZMiQIbJ69Wo5dOiQHDhwwHfVtNskbPkifM9nVn+A8L2cHmHhaIgNftXWrVtl8eLFsn79etGPTf2i1jg0efJkGTNmjMyfP18GDx4sAwcOFP1A1qQKDCvXTZ8+XXbv3i0rV640fC4duBbM5E6TW7hwofTq1UuGDRtm/vQzEOnbt69484H0pt0mYcsX4XslSh/he35hwsDRcAThe37dkgwNHz5ctm/fLmCvASA4ceJEWbRokegLGN9l024TJDZM+SJ8z2fWfIDwvbwWrq8aOBqOIXyP8D237IT5raZ8Eb7nUZTwPcL3CN8jfM9TJVgv4XuE79npY4Tv5aQgfI/wPXtThPEQvpdXifC9vBZhfITvhVEpH6dS+Tpy5IjzyiuvOLrQh3Ps2LH8gSF97777riGM6qIhhjha6jB9y+rMmzev1G4nil0xoFi3jvC97Jo2CqQtTbkmfM9vjSh2rWueFeF7dqggc54okLY0ZZbwPb81oti1risrv0wMUQEqkGUFCN/LsvWYdipwHCmQ2LeBWdSQ8L0sWo1p7ggFCN/rCJWruAbhezmxCN8jfI/wPf+LgVSFCN8jfI/wPcL3UlUplUoM4XuE72m7kvA9wvcI3yN8j/C9KkYkbFTC96wUktgAO+F7eZHhC4LesC0IRyN8D6rE4wjfKyxfhO+VKFuE7+WECQtHQ+y0g97cCgCssubmZmlra5N169aZjB48eFAaGxuNf82aNTJr1izjb2hoMGA7E0jRP8L3VhmOVxImGTRokDmtftojo0ePju0Sic2zInwvZ6OwcDTETjvojfC99AERw5YvwvdK1JmE7/mFCQNHwxFpB73pR6zS2toqLS0tgqfmiBEjDLiuqalJ+vfvbzMN2iZalPjr3bu3TJ06VTZu3CiTJk2ycWrtIXyvn6xatUrGjRsXuymAigZBdujQobGeO5ExK8L3Cm1UDRwNRxO+R/heYSkqvaWa8kX4nkdHwvcI3yN8j/A9T5VgvYTvEb5np48RvpeTgvA9wvfsTRHGQ/heXqVKcLT333/f2bt3r6Ovlx3EbY/DcYCjnXbaaQ5gaUm5PXv2OC+//LKjXdWil9A3g862bducffv2lYxT9EDPxiiQNs9pynp//etfGxjdm2++WTReHDbBicePH2+AdU8++WTR68SxsVL5InwvDpUTPAfhewmKm/Cpo0DaEk5aVacnfM8vVxS71jXPivA9O1SQOU8USFuaMkv4nt8aUexa15WVXyaGqAAVyLICiU0KzbIoTDsVoALpUyCReVbpy2a4FBG+F04nxjr+FCB8L2U2J3wvZxDC9wjfI3zP/2IgVSHC9wjfI3yP8L1UVUqlEkP4HuF72q4kfI/wPcL3CN8jfK89ox6E7+VVS2yAnfC9vMjwEb432AoyatQo60/K47K3yp0/aBOE6wGI6OY5mBfC91xlAr+E7+UEIXyP8L3ArRFrMGz50k/fZOTIkfbawMMMGzbMhuP0EL7XvXuBnvp9mkyZMkVOP/106dy5s0yYMMHEOXz4sPnVj3rl3HPPlZUrV5rw448/LjpmJddee63vXD179jRh/X7Ktz2OQFg4Gq5F+F4cioc7x8KFC6VXr17mhsVNq5+BSN++fQUsLq9Lu03Cli/C97xW9fgJ3/OIoV7C9wjf85eIeENhyhe6uAMGDDB/YF/160f4nrEC4XuFhbEaOBqOJnyP8L3CUlR6SzXli/A9j46E7xG+R/ge4XueKsF6Cd8jfM9OHyN8LycF4XuE79mbIoyH8L28SpXgaHGA3gjfy+sdxkf4XhiVcnEAc+zatauBO2ozqeSBOmXEmTdvXsn9UaCKpa9a8nLZ2UH4XnZsFUxpFEhb8Fy1DBO+51c/il3rmmdF+J4dKsicJwqkLU2ZJXzPb40odq3rysovE0NUgApkWQHC97JsPaadChxHCiT2bWAWNSR8L4tWY5o7QgHC9zpC5SquQfheTizC9wjfI3zP/2IgVSHC9wjfI3yP8L1UVUqlEkP4HuF72q4kfI/wPcL3CN8jfK+KEQkblfA9K4UkNsBO+F5eZPiCoDdsC8LRXnvtNXn99ddl7dq1snXrVrn33nsRzbgwMDk3bnt/gUgJ47x5gV9n38v+/fulsbHRHP7OO+8I8rJ582ZZunSpALY3eDDhe2G0DcZpj03ccwTLF+F7rjKBX8L3coKEhaMh9pw5c2TdunXmQHC65s+fnztJSv67Fea3v/1taW5ulra2NpvegwcP2spqzZo1MmvWLJPqhgbC95I0X9jyRfheGSugQJ9zzjkGcNapUyf5+te/Li4Uz3sY4GHjx4/3birwjxs3TroTvlegS0dvmDx5sowZM8ZUomgpDRw4ULp0yTXOvdC66dOny+7duw30sE+fPqID14KZ3GlyhO/NlI0bNyZikqNHj5rzulDLuC6SSDeQ8D2/ecLA0XAEbmz8AT+7Y8cOQw5dsmSJ6Aek/hPWKISHTmtrq7S0tMjOnTtlxIgRgi5fU1OT9O/f36YKFRee+Pjr3bu3TJ1K+J4VJwFPmPKF7jrhe0XEJ3yvUJRq4Gg4mvA9wvcKS1HpLdWUL8L3PDoSvkf4HuF7hO95qgTrJXyP8D07fYzwvZwUhO8RvmdvijAewvfyKhG+l9cijC8KpC3M+RGH8L2wSjkO4XvhtWpXTML32iVbKg6KAmlLRQZ+mwjC9/zWiGLXuuZZEb5nhwoy54kCaUtTZgnf81sjil3rurLyy8QQFaACWVaA8L0sW49ppwLHkQKJTArNqn6E72XVckx30goQvpe0wlWen/C9nGCE7xG+R/ie/8VAqkKE7xG+R/ge4XupqpRKJYbwPcL3tF1J+B7he4TvEb5H+F6VoxImOuF7edUSG2AnfC8vMnxeYJ27JwhHI3zPVSb6r8veKnemoE0QrgebuHkO5oXwPVeZwC/hezlBwsLREJvwvUAhSjCIygzMtV27dsmQIUNk9erVcujQITlw4IDvqmm3SdjyRfiez6z+AOF7OT0AF7z77rvl2WefNcwn0Aief/55s/PEE0/0ifboo48anPHixYtl/fr1MnfuXN/+WgcI30ufTcKWL5S1ffv2yYYNG2TatGkycybhe+Z+InzPX62EgaPhCML3/LolGRo+fLhs375dwF4DQHDixImyaNEi0Rcwvsum3SZIbJjyRfiez6z5AOF7eS1cXzVwNBxD+B7he27ZCfNbTfkifM+jKOF7hO8Rvkf4nqdKsF7C9wjfs9PHCN/LSUH4HuF79qYI4yF8L68S4Xt5LcL4CN8Lo1I+TqXydeTIEeeVV15xdKEP59ixY/kDQ/oI3wspVHujEb7XXuVqf1wUSFvtU59PAeF7eS3gi2LXuuZZEb5nhwoy54kCaUtTZgnf81sjil3rurLyy8QQFaACWVaA8L0sW49ppwLHkQKJfRuYRQ0J38ui1ZjmjlCA8L2OULmKaxC+lxOL8D3C9wjf878YSFWI8D3C9wjfI3wvVZVSqcQQvkf4nrYrCd8jfI/wPcL3CN+rYkTCRiV8z0ohiQ2wE76XFxm+IOgN24JwNML3oEo8jvC9wvJF+F6JskX4Xk6YsHA0xE476M2tAMAqa25ulra2Nlm3bp3J6MGDB6WxsdH416xZI7NmzTL+hoYGA7YzgRT9I3xvlQwbNiwRiwwaNMicVz/tkdGjR8d2jcTmWRG+l7NRWDgaYhO+F1u5rniihQsXSq9evcwNi5tWPwORvn37So8ePXzHpt0mYcsX4Xs+s+YDhO/ltYAvDBwN8dIOeuvUqZO0trZKS0uL4Kk5YsQIA65ramoyFFTkAQ43PFqU+Ovdu7dMnTpVNm7cKJMmTcpFSMF/wvf6yapVq2TcuHGxWwOo6C5dusjQoUNjPXciY1aE7xXaqBo4Go4mfI/wvcJSVHpLNeWL8D2PjoTvEb5H+B7he54qwXoJ3yN8z04fI3wvJwXhe4Tv2ZsijIfwvbxKleBo77//vrN3715HXy87iNseh+N0XMk57bTTHMDSknJ79uxxXn75ZUe7qkUvoW8GnW3btjm6mkrJOEUP9GwkfM8jRghvpfJF+F4IEWsZhfC9Wqof7dpRIG3Rrhzv0YTv+fWMYte65lkRvmeHCjLniQJpS1NmCd/zWyOKXeu6svLLxBAVoAJZViCxSaFZFoVppwJUIH0KJDLPKn3ZDJciwvfC6cRYx58ChO+lzOaE7+UMQvge4XuE7/lfDKQqRPge4XuE7xG+l6pKqVRiCN8jfE/blYTvEb5H+B7he4TvtWfUg/C9vGqJDbATvpcXGT7C9wZbQUaNGmX9SXlc9la58wdtgnA9ABHdPAfzQvieq0zgl/C9nCCE7xG+F7g1Yg2GLV/66ZuMHDnSXht4GML3fisH4Xs5IcLC0RA77aC3yZMny5gxY2T+/PkyePBgGThwoOEWIe1eaN306dNl9+7dsnLlSsPo0oFrwUzuNDnC92YaxlgSNjl69Kg5bc+ePWM9fSLdQML3/DYifI/wPX+JiDcUpnyhiztgwADzB/ZVv36E7xkrEL5XWBirgaPhaML3CN8rLEWlt1RTvgjf8+hI+B7he4TvEb7nqRKsl/A9wvfs9DHC93JSEL5H+J69KcJ4CN/Lq1QJjkb4Xl4r+Ajf8+tRKVSpfBG+V0nBGu8nfK/GBohw+SiQtgiXjf1Qwvf8kkaxa13zrAjfs0MFmfNEgbSlKbOE7/mtEcWudV1Z+WViiApQgSwrQPhelq3HtFOB40iBRCaFZlU/wveyajmmO2kFCN9LWuEqz0/4Xk4wwvcI3yN8z/9iIFUhwvcI3yN8j/C9VFVKpRJD+B7he9quJHyP8D3C9wjfI3yvylEJE53wvbxqiQ2wE76XFxm+IOgN24JwtNdee01ef/11Wbt2rWzdulXuvfdeRDMuDEzOjdve3759+4Y61JsX+HX2vezfv18aGxvN8e+8844gL5s3b5alS5cKYHtAyriO8D1Xicq/7bGJe9Zg+SJ8z1Um8Ev4Xk6QsHA0xJ4zZ46sW7fOHDhlyhTDjcqdJR3/3QoTrLLm5mZpa2uz6T148KCtrNasWSOzZs0yiW5oIHwvSeuFLV+E75WxAuF7OXEI3+sjhO+VuVEi7gpbvk488UTZt2+fbNiwQaZNmyYzZxK+Z6QnfM9fAsPA0XBEnz59zB/wszt27DDk0CVLlkjXrl39J6xRqFOnTtLa2iotLS2yc+dOGTFihKDL19TUJP3797epAjUUT3z89e7dW6ZOJXzPipOAJ0z5Qned8L0i4hO+VyhKNXA0HE34HuF7haWo9JZqyhfhex4dCd8jfI/wPcL3PFWC9RK+R/ienT5G+F5OCsL3CN+zN0UYD+F7eZUqwdEI38trBR/he349KoUqlS/C9yopWOP9hO/V2AARLh8F0hbhsrEfSvieX9Iodq1rnhXhe3aoIHOeKJC2NGWW8D2/NaLYta4rK79MDFEBKpBlBQjfy7L1mHYqcBwpkNi3gVnUkPC9LFqNae4IBQjf6wiVq7gG4Xs5sQjfI3yP8D3/i4FUhQjfI3yP8D3C91JVKZVKDOF7hO9pu5LwPcL3CN8jfI/wvSpGJGxUwvesFJLYADvhe3mR4fMC69w9QTga4XuuMtF/XfZWuTMFbYJwPdjEzXMwL4TvucoEfgnfywkSFo6G2ITvBQpRgkFUZmCu7dq1S4YMGSKrV6+WQ4cOyYEDB3xXTUzo9K0AAAWmSURBVLtNwpYvwvd8ZvUHCN/L6REWjobYjz76qMEZL168WNavXy9z5871i1rj0OTJk2XMmDGGYApM8cCBA6VLl1zjHAwr102fPl12794tK1euNHwuwvdcZeL/DVu+CN8roT3he35hwsDRcAThe37dkgwNHz5ctm/fLmCvASA4ceJEWbRokegLGN9l024TJDZM+SJ8z2fWfIDwvbwWrq8aOBqOIXyP8D237IT5raZ8Eb7nUZTwPcL3CN8jfM9TJVgv4XuE79npY4Tv5aQgfI/wPXtThPEQvpdXqRIcjfC9vFbwEb7n16NSqFL5InyvkoI13k/4Xo0NEOHyUSBtES4b+6GE7/kljWLXuuZZEb5nhwoy54kCaUtTZgnf81sjil3rurLyy8QQFaACWVaA8L0sW49ppwLHkQKJfRuYRQ0J38ui1ZjmjlAgDvhe2HOUyg+7gR5lCN/LiUH4HuF7ScD3jh07JjNnzjTfY7744osFXwt4bsXiXv9Y/fEbInyP8D3C9zoGvrd06VJ801R1ZVP9EVVfIhsHEL5H+B5uoFWrVpkCe/jwYednP/uZLbz79u1z9GNg5+KLL7bb9INtRz/mdvSbQnPzPfDAA3ZfXJ4nnnjCOeGEE5xbb73VGTZsmKN8K9+pMTWiV69ejn5u42BeI8KYHoBjlCJh4upH5c5bb71lj1u2bJlJ70MPPWS36beDzrhx45xrOwC+197KKrEBdhVXBg0aJN26dTNf599www0CTIXX3X333XLllVfKY489JqNGjRIVWCZMmOCNIhdddJGouHLLLbdI37595dRTT5UHH3zQxGlpaZHzzz9f1FjSu3dvGTt2rIDZ4zotWHLXXXe5QfO7bt060Vnego+tXffee+/J5s2bRSssd1NVvy+88II888wzct555xUcB0YVulWE7xG+V1A4QmwgfC8vUmID7ITv5UWGLwh6w7YgHI3wPagSjyN8r7B8Eb5XomwRvpcTJiwcDbHTDnpzKwCwypqbm6WtrU3QUoU7ePCgNDY2Gv+aNWtk1qxZxt/Q0GDAdiaQon+E760S7VYmYhH0qOB27twpo0ePju0aiXUDCd/L2SgsHA2xCd+LrVxXPNHChQvN8AFuWPzpOI8ZZvBCBLNgk7Dli/C9EkWC8D2/MGHgaDgi7aC3Tp06SWtrq2CsEE/NESNGGHBdU1OT9O/f32YaNzxalPjDWOLUqVNl48aNMmnSJBun1h7C9/qJvkwQHVSP3RRARYMgO3To0FjPnciYFeF7hTaqBo6GownfI3yvsBSV3lJN+aolfK90DirvSaSyInyP8D3C9wjfq1z9VBnDTrSI2XP99debeSmaHGfAgAHOdddd53Tu3Nl3ldmzZzs60OnbFgxoN8LRKQ7BzSasUx4cvSnMnJHu3bs7CxYsMH5dqcQXf9OmTWa7Dgr7tnsDwMloN8fRhRq8m33+M844w/n85z/v24aAdvPM+ZFX759+YW7iYl4L5rFgHzTQaQwO5vG4TseqnFNOOcV3rC7M4Ozdu9eN4lSCybkRCd/LKVFJL30Ta8sn7KKDws6WLVtcGZ04bXLPPfcY2+rUFnv+ajwod95yBT/uKddVKl8zZsxwtFtmz9G1a1dHFyNxwFBzXaUy7MarNEdqxYoVRlfvvC73WPe30jnceMHfRCeFEr6Xl7sSHI3wvbxW8BG+59ejUqhS+UoDfO/dd991UFGiUYAKt1pX/RHVXqGG8Qnfq6H4ES8dBdIW8dKxHk74Xl5OHStzduzYYf70BU1+R0hfXX/ITPiePr8y6qJA2tKUZcL34rNGXVdW8cnEM1EBKlBrBRKbFFrrjPH6VIAK1JcCrKzqy57MDRWoWwVYWdWtaZkxKlBfCrCyqi97MjdUoG4VYGVVt6ZlxqhAfSnAyqq+7MncUIG6VYCVVd2alhmjAvWlwP8DUfEWEyLj5iAAAAAASUVORK5CYII=;" vertex="1" parent="1">
          <mxGeometry x="220" y="300" width="299" height="387" as="geometry" />
        </mxCell>
        <mxCell id="cYs58w9Qr0jUcwbUE8m7-3" value="GA" style="rounded=0;whiteSpace=wrap;html=1;" vertex="1" parent="1">
          <mxGeometry x="380" y="130" width="190" height="160" as="geometry" />
        </mxCell>
      </root>
    </mxGraphModel>
  </diagram>
</mxfile>
